<svg xmlns="http://www.w3.org/2000/svg" viewBox="0 0 64 64" role="img" aria-label="InEx Ledger favicon">
  <defs>
    <linearGradient id="bg" x1="10" y1="8" x2="54" y2="58" gradientUnits="userSpaceOnUse">
      <stop offset="0" stop-color="#4f46e5"/>
      <stop offset="0.52" stop-color="#2563eb"/>
      <stop offset="1" stop-color="#0f172a"/>
    </linearGradient>
    <linearGradient id="tile" x1="18" y1="16" x2="46" y2="48" gradientUnits="userSpaceOnUse">
      <stop offset="0" stop-color="#ffffff"/>
      <stop offset="1" stop-color="#c7d2fe"/>
    </linearGradient>
  </defs>
  <rect width="64" height="64" rx="16" fill="url(#bg)"/>
  <path d="M17 20.5C17 18.57 18.57 17 20.5 17h9c1.93 0 3.5 1.57 3.5 3.5v9c0 1.93-1.57 3.5-3.5 3.5h-9A3.5 3.5 0 0 1 17 29.5v-9Z" fill="url(#tile)"/>
  <path d="M37 20.5c0-1.93 1.57-3.5 3.5-3.5h3c1.93 0 3.5 1.57 3.5 3.5v23c0 1.93-1.57 3.5-3.5 3.5h-3a3.5 3.5 0 0 1-3.5-3.5v-23Z" fill="#ffffff" opacity="0.82"/>
  <path d="M17 40.5c0-1.93 1.57-3.5 3.5-3.5h9c1.93 0 3.5 1.57 3.5 3.5v3c0 1.93-1.57 3.5-3.5 3.5h-9a3.5 3.5 0 0 1-3.5-3.5v-3Z" fill="#ffffff" opacity="0.7"/>
  <path d="M21 25h8" stroke="#1e293b" stroke-width="3" stroke-linecap="round" opacity="0.78"/>
  <path d="M21 43h8" stroke="#1e293b" stroke-width="3" stroke-linecap="round" opacity="0.58"/>
</svg>
